<svg version="1.1" xmlns="http://www.w3.org/2000/svg" viewBox="0 0 612.9508368470788 1554.9128608703659" width="1225.9016736941576" height="3109.8257217407318">
  <!-- svg-source:excalidraw -->

  <defs>
    <style>
      @font-face {
        font-family: "Virgil";
        src: url("https://excalidraw.com/Virgil.woff2");
      }
      @font-face {
        font-family: "Cascadia";
        src: url("https://excalidraw.com/Cascadia.woff2");
      }
    </style>
  </defs>
  <rect x="0" y="0" width="612.9508368470788" height="1554.9128608703659" fill="#ffffff"></rect><g stroke-linecap="round" transform="translate(10 10) rotate(0 267.17534383138036 467.88546244303416)"><path d="M-0.03 -0.09 C191.66 0.34, 383.05 1.27, 533.95 0.4 M0.12 0.05 C141.21 0.01, 283.03 0.67, 534.4 0.18 M533.85 -0.45 C531.25 348.73, 532.35 699.38, 533.7 935.38 M534.13 -0.33 C533.79 192.18, 533.65 384.3, 534.23 935.68 M534.66 936.35 C410.35 934.95, 287.46 935.49, -0.1 936.2 M533.97 935.92 C376.36 936.43, 218.14 936.28, 0.05 935.54 M0.22 936.03 C2.32 747.14, 2.53 557.81, -0.3 0.13 M0.21 935.51 C-0.23 658.54, -0.69 381.33, -0.37 -0.22" stroke="#495057" stroke-width="4" fill="none"></path></g><g stroke-linecap="round" transform="translate(39.101816813151345 47.75113423665243) rotate(0 110.03878275553416 111.42136891683003)"><path d="M0.44 -0.8 L218.25 -1.44 L220.2 221.09 L-0.42 223.04" stroke="none" stroke-width="0" fill="#333333"></path><path d="M1.58 -0.81 C66.23 -0.22, 131.41 1.72, 219.82 -1.16 M-0.02 0.7 C67.14 -0.79, 135.54 -1.56, 220.56 -0.76 M220.96 -0.66 C220.14 64.65, 219.07 132.25, 218.47 221.78 M219.43 -0.39 C218.37 81.58, 217.69 165.51, 219.69 223.47 M218.35 224.52 C172.27 222.73, 125.6 221.89, -0.47 224.38 M220.88 223.4 C134.09 225.07, 49.28 223.67, 0.73 222.23 M-1.04 224.57 C-1.92 137.75, -1.45 48.55, -1.28 -0.66 M-0.18 223.5 C-2.41 167.55, -2.26 111.23, -0.08 -0.44" stroke="#495057" stroke-width="4" fill="none"></path></g><g stroke-linecap="round" transform="translate(292.0930735270167 46.63252512613872) rotate(0 110.03878275553416 111.42136891683003)"><path d="M-0.78 -1.89 L219.24 -0.83 L218.83 224.04 L1.23 224.35" stroke="none" stroke-width="0" fill="#333333"></path><path d="M1.52 0.62 C50.55 0.18, 100.35 3.04, 218.5 1.47 M0.23 -0.63 C76.23 -2.01, 154.25 -1.97, 219.74 0.86 M220.45 -0.21 C217.86 59.09, 220.06 118.73, 220.32 221.44 M220.92 -0.14 C218.76 85.56, 219.38 170.18, 219.98 223.36 M221.47 224.26 C164.4 225.62, 112.71 224.65, -0.55 222.34 M219.78 223.11 C169.5 221.05, 119.29 222.42, -0.06 222.02 M-1.29 224.56 C-0.39 172.52, 2.02 122.39, 0.1 0.53 M0.28 222.47 C-0.29 153.67, -0.28 84.21, 0.13 0.46" stroke="#495057" stroke-width="4" fill="none"></path></g><g stroke-linecap="round" transform="translate(38.64899953206532 308.9675966898585) rotate(0 110.03878275553416 111.42136891683003)"><path d="M-0.59 1.69 L220.44 0.13 L221.93 222.9 L-1.21 220.96" stroke="none" stroke-width="0" fill="#333333"></path><path d="M0.58 -1.49 C66.98 0.85, 132.48 -1.77, 218.72 -0.03 M0.59 0.22 C44.97 -0.48, 88.98 -0.13, 220.44 -0.24 M220.94 0.49 C219.88 87.66, 218.82 177.4, 220.78 223.12 M220.19 0.21 C219.22 60.06, 217.82 118.98, 219.97 222.02 M218.43 221.74 C140.1 221.57, 61.05 221.3, 0.79 221.69 M219.67 223.48 C170.53 222.27, 120.4 222.74, 0.32 223.69 M-1.59 221.55 C0.02 141.7, -1.23 58.33, -1.43 -0.99 M0.82 222.04 C0.15 145.54, 0.36 69.78, -0.57 -0.66" stroke="#495057" stroke-width="4" fill="none"></path></g><g stroke-linecap="round" transform="translate(291.64025624592887 307.8489875793448) rotate(0 110.03878275553416 111.42136891683003)"><path d="M1.69 0.36 L220.21 1.85 L220.14 221.63 L-1.89 224.64" stroke="none" stroke-width="0" fill="#333333"></path><path d="M-1.49 0.31 C55.16 -1.5, 106.13 -2, 220.05 -1.72 M0.22 0.85 C71.26 -0.59, 143.7 -0.94, 219.84 0.82 M220.57 0.64 C218.27 56.74, 220 115.01, 220.36 222.3 M220.29 0.72 C222.21 47.91, 221.3 97.07, 219.25 223.4 M218.98 223 C153.7 222.27, 86.69 221.82, -1.15 221.59 M220.71 223.35 C173.46 222.39, 127.85 222.27, 0.85 223.44 M-1.3 223.47 C1.2 148.35, 0.12 73.67, -0.99 0.78 M-0.81 222.34 C-1.67 163.26, -0.55 103.68, -0.66 -0.25" stroke="#495057" stroke-width="4" fill="none"></path></g><g stroke-linecap="round" transform="translate(42.91136932373138 567.2125307718898) rotate(0 110.03878275553416 111.42136891683003)"><path d="M1.31 1.54 L219.92 1.97 L220.19 223.15 L-0.3 222.31" stroke="none" stroke-width="0" fill="#333333"></path><path d="M1.35 0.7 C52.61 0.47, 103.98 2.49, 221.11 1 M0.07 0.53 C84.75 -0.05, 170.6 0.51, 220.08 -0.29 M221.6 -1.54 C223.41 68.73, 223.36 140.07, 219.79 221.57 M219.32 -0.6 C219.42 77.76, 218.53 154.73, 220.93 223.64 M221.42 224.24 C161.21 223.89, 104.24 224.66, -0.38 222.09 M220.02 223.5 C170.33 221.88, 121.41 221.63, 0.32 222.65 M-0.23 222.96 C-1.33 146.73, -0.97 70.21, 0.32 0.79 M0.59 222.16 C0.45 146.58, 0.74 69.76, -0.52 -0.73" stroke="#495057" stroke-width="4" fill="none"></path></g><g stroke-linecap="round" transform="translate(296.41056060790925 566.093921661376) rotate(0 110.03878275553416 111.42136891683003)"><path d="M1.54 -0.16 L222.04 0.11 L220.38 222.54 L-0.53 223.76" stroke="none" stroke-width="0" fill="#333333"></path><path d="M0.7 0.1 C81.2 -2.51, 164.73 -0.45, 221.08 1.54 M0.53 -0.84 C48.55 -0.72, 98.5 -0.15, 219.78 0.14 M218.54 1.54 C217.59 89.11, 218.49 174.93, 218.81 223.67 M219.48 0.14 C219.81 56.81, 219.27 115.96, 220.87 222.55 M221.47 222.49 C141.33 225.51, 63.29 223.94, -0.76 221.55 M220.74 222.76 C145.89 223.38, 71.87 223.04, -0.19 223.2 M0.12 222.19 C-1.59 147.87, -2.07 73.82, 0.79 0.76 M-0.68 223.22 C-1.39 157.53, -1.52 90.37, -0.73 0.57" stroke="#495057" stroke-width="4" fill="none"></path></g><g stroke-linecap="round" transform="translate(43.202588399251 819.0426902770969) rotate(0 110.03878275553416 62.45316823323628)"><path d="M1.21 -1.58 L219.85 0.18 L219.05 125.53 L0.21 125.66" stroke="none" stroke-width="0" fill="#333333"></path><path d="M0.98 -0.63 C60.6 1.77, 122.98 1.13, 220.02 -0.17 M0.36 0.77 C55.54 -0.92, 111.92 -0.4, 220.35 -0.21 M219.76 -0.51 C218.07 51.06, 221.12 100.44, 220.76 123.89 M219.26 0.58 C219.95 26.23, 221.32 54.57, 219.96 125.53 M221.64 124.66 C137.57 123.21, 52.26 123.68, 0.8 124.64 M219.3 124.05 C166.91 125.41, 112.1 125.37, 0.24 124.55 M0.23 123.42 C-1.56 81.65, 0.07 36.72, 0.53 0.86 M0.54 125.45 C-0.86 76.96, 0.28 27.9, 0.36 0.21" stroke="#495057" stroke-width="4" fill="none"></path></g><g stroke-linecap="round" transform="translate(294.7751439412432 817.9190762837707) rotate(0 110.03878275553416 62.99039967854878)"><path d="M-1.58 -0.22 L220.25 -1.02 L220.7 126.19 L0.76 126.83" stroke="none" stroke-width="0" fill="#333333"></path><path d="M-0.63 -1.25 C48.76 -1.79, 96.95 -1.14, 219.91 -0.78 M0.77 -0.52 C80 -0.99, 160.33 -0.52, 219.87 0.85 M219.57 -1.25 C220.75 31.97, 220.42 61.05, 219.06 124.27 M220.66 -0.65 C220.34 43.77, 221.88 85.99, 220.7 126.78 M219.83 127.18 C155.7 127.29, 92.22 128.5, -0.27 125.02 M219.22 126.67 C173.32 124.01, 126.23 124.51, -0.36 126.45 M-1.49 124.24 C0.25 89.82, -0.42 54.41, 0.86 1.79 M0.54 125.57 C0.43 84.38, 0.01 41.68, 0.21 0.61" stroke="#495057" stroke-width="4" fill="none"></path></g><g transform="translate(126.93582661946675 72.78544871012309) rotate(0 21.3756103515625 96.19024658203125)"><text x="21.375610351562518" y="133.3804931640626" font-family="Virgil, Segoe UI Emoji" font-size="153.90439453125006px" fill="#fff" text-anchor="middle" style="white-space: pre;" direction="ltr">1</text></g><g transform="translate(345.72149658202943 69.77287801107195) rotate(0 55 97.5)"><text x="55" y="136" font-family="Virgil, Segoe UI Emoji" font-size="153.90439453125006px" fill="#fff" text-anchor="middle" style="white-space: pre;" direction="ltr">2</text></g><g transform="translate(100.34539794921511 321.9551900227907) rotate(0 52.5 97.5)"><text x="52.5" y="136" font-family="Virgil, Segoe UI Emoji" font-size="153.90439453125006px" fill="#fff" text-anchor="middle" style="white-space: pre;" direction="ltr">3</text></g><g transform="translate(354.44525146484193 322.11101277669695) rotate(0 49.5 97.5)"><text x="49.5" y="136" font-family="Virgil, Segoe UI Emoji" font-size="153.90439453125006px" fill="#fff" text-anchor="middle" style="white-space: pre;" direction="ltr">4</text></g><g transform="translate(105.765380859375 582.2150777181032) rotate(0 47.5 97.5)"><text x="47.5" y="136" font-family="Virgil, Segoe UI Emoji" font-size="153.90439453125006px" fill="#fff" text-anchor="middle" style="white-space: pre;" direction="ltr">5</text></g><g transform="translate(357.81927490234193 581.4809468587282) rotate(0 49.5 97.5)"><text x="49.5" y="136" font-family="Virgil, Segoe UI Emoji" font-size="153.90439453125006px" fill="#fff" text-anchor="middle" style="white-space: pre;" direction="ltr">6</text></g><g stroke-linecap="round" transform="translate(43.61026509602834 1059.0603574117058) rotate(0 110.03878275553416 111.42136891683003)"><path d="M-1.94 0.61 L218.79 1.95 L218.72 222 L-1.67 223.04" stroke="none" stroke-width="0" fill="#ced4da"></path><path d="M-1.36 0.09 C53.51 1.17, 102.43 -0.35, 219.24 -0.07 M0.73 -0.15 C52.56 2.02, 103.48 1.31, 219.68 -0.77 M218.49 1.69 C220.97 73.69, 219.74 147.77, 220.72 223.07 M219.22 -0.09 C220.17 73.3, 219.5 145.1, 219.6 222.25 M221.04 223.41 C145.22 222.54, 70.57 220.35, 1.56 223.74 M219.34 222.25 C170.01 222.65, 118.78 221.03, 0.1 222.38 M-0.28 223.58 C2.2 174.44, 0.8 124.4, 1.66 0.99 M0.22 223.21 C0.46 166.51, 1.46 111.29, -0.05 -0.7" stroke="#ced4da" stroke-width="4" fill="none"></path></g><g stroke-linecap="round" transform="translate(296.23608144124137 1058.2593981425007) rotate(0 110.03878275553416 111.42136891683003)"><path d="M0.61 -1.28 L222.03 -1.36 L219.24 221.17 L0.2 221.96" stroke="none" stroke-width="0" fill="#ced4da"></path><path d="M0.09 1.43 C49.45 -0.22, 96.45 0.67, 220.01 -1.11 M-0.15 0.64 C83.83 -1.95, 166.46 -2, 219.31 0.31 M221.77 0.4 C218.96 71.68, 218.34 145.65, 220.31 223.29 M219.99 0.36 C219.09 63.46, 218.27 127.06, 219.49 223.19 M220.65 222.82 C150.44 224.06, 77.79 225.46, 0.89 221.62 M219.49 223.3 C165.09 220.96, 107.65 221.32, -0.46 222.15 M0.74 223.75 C-1.12 170.46, -2.07 120.73, 0.99 -0.84 M0.37 222.7 C-1.72 163.83, -0.97 103.05, -0.7 -0.84" stroke="#ced4da" stroke-width="4" fill="none"></path></g><g stroke-linecap="round" transform="translate(45.20798238118459 1322.0701230367058) rotate(0 110.03878275553416 111.42136891683003)"><path d="M-0.28 -2 L218.79 1.95 L221.38 223.03 L0.62 223.36" stroke="none" stroke-width="0" fill="#ced4da"></path><path d="M-1.01 -1.5 C45.77 2.47, 89.5 0.99, 218.36 0.68 M-0.25 -0.27 C47.31 2.41, 96.07 1.86, 220.25 -0.29 M221.4 0.8 C220.42 56.46, 218.2 114.51, 220.69 221.19 M219.51 -0.33 C221.05 50.47, 221.52 100.61, 220.14 223.69 M220.71 222.64 C173.81 222.24, 131.07 222.31, 0.7 222.8 M220.03 222.63 C141.27 222, 63.06 221.91, -0.38 223.48 M-0.36 221.37 C-0.78 138.24, -0.24 56.09, -0.87 -0.14 M-0.17 222.3 C0.61 161.88, 0.47 101.79, 0.5 -0.58" stroke="#ced4da" stroke-width="4" fill="none"></path></g><g stroke-linecap="round" transform="translate(297.2017415364562 1320.951513926192) rotate(0 110.03878275553416 111.42136891683003)"><path d="M-2 -1.29 L222.02 1.3 L220.26 223.46 L0.51 223.5" stroke="none" stroke-width="0" fill="#ced4da"></path><path d="M-1.5 1.29 C73.8 1.64, 144.55 -0.61, 220.76 -1.43 M-0.27 -0.58 C84.9 0.86, 168.53 0.73, 219.78 -0.37 M220.88 0.65 C220.77 61.72, 221.43 127.21, 218.43 221.55 M219.75 0.31 C218.47 75.31, 218.42 149.14, 220.92 222.02 M219.87 221.61 C132.78 224.59, 45.13 224.24, -0.04 223.8 M219.87 222.23 C155.77 222.11, 90.85 222.37, 0.64 223.51 M-1.48 221.62 C-2 160.46, -0.08 98.57, -0.14 -0.5 M-0.54 223.39 C0.28 157.08, 0.52 90.98, -0.58 -0.12" stroke="#ced4da" stroke-width="4" fill="none"></path></g><g stroke-linecap="round"><g transform="translate(598.3606567382803 294.5691274007204) rotate(0 2.135355950198118 274.31114611091556)"><path d="M-0.32 -1.05 C0.25 90.31, 1.71 456.49, 2.26 548.15 M1.71 1.01 C2.77 92.58, 4.51 458.68, 4.59 549.67" stroke="#333" stroke-width="4" fill="none"></path></g><g transform="translate(598.3606567382803 294.5691274007204) rotate(0 2.135355950198118 274.31114611091556)"><path d="M8.32 25.87 C7.9 21.26, 7.02 17.22, -1.99 -2.58 M10.58 27.94 C6.9 17.89, 2.41 7.54, 0.47 -0.87" stroke="#333" stroke-width="4" fill="none"></path></g><g transform="translate(598.3606567382803 294.5691274007204) rotate(0 2.135355950198118 274.31114611091556)"><path d="M-12.2 25.97 C-8.41 21.39, -5.07 17.33, -1.99 -2.58 M-9.94 28.04 C-6.74 17.97, -4.34 7.6, 0.47 -0.87" stroke="#333" stroke-width="4" fill="none"></path></g><g transform="translate(598.3606567382803 294.5691274007204) rotate(0 2.135355950198118 274.31114611091556)"><path d="M-7.51 520.29 C-3.68 527.29, -0.3 534.8, 2.92 548.14 M-5.25 522.37 C-1.49 531.23, 0.98 539.78, 5.38 549.85" stroke="#333" stroke-width="4" fill="none"></path></g><g transform="translate(598.3606567382803 294.5691274007204) rotate(0 2.135355950198118 274.31114611091556)"><path d="M13.01 520.23 C12.63 527.19, 11.8 534.71, 2.92 548.14 M15.27 522.3 C12.15 531.16, 7.73 539.74, 5.38 549.85" stroke="#333" stroke-width="4" fill="none"></path></g></g><g stroke-linecap="round" transform="translate(42.32897186279206 947.6757787068746) rotate(0 110.04179000854492 39.18811798095703)"><path d="M-1.83 -0.65 L221.76 0.17 L218.11 77.41 L1.25 77.45" stroke="none" stroke-width="0" fill="#ced4da"></path><path d="M-1.58 -1.58 C73.87 0.98, 146.52 1.61, 221.22 1.67 M0.74 -0.79 C61.84 -1.25, 124.49 -1.09, 220.82 -0.06 M218.37 1.99 C220.12 16.15, 220.76 34.72, 218.59 77.06 M219.39 0.1 C219.01 17.17, 220.12 35.41, 220.77 78.07 M219.04 78.51 C168.61 81.35, 116 80.49, 0.39 78.36 M220.72 79.21 C167.75 77.28, 115.28 77.74, -0.64 78.19 M0.2 76.47 C0.79 46.48, 1.32 16.35, 1.67 0.67 M0.62 78.51 C0.47 52.26, -0.14 24.04, -0.52 0" stroke="#ced4da" stroke-width="4" fill="none"></path></g><g transform="translate(117.67173767089662 828.3978551228884) rotate(0 41.5 97.5)"><text x="41.5" y="136" font-family="Virgil, Segoe UI Emoji" font-size="153.90439453125006px" fill="#fff" text-anchor="middle" style="white-space: pre;" direction="ltr">7</text></g><g stroke-linecap="round" transform="translate(294.10347366332917 948.1056950887105) rotate(0 110.04179000854492 39.18811798095703)"><path d="M0.7 -1.66 L218.39 -0.29 L221.14 77.9 L0.06 78.93" stroke="none" stroke-width="0" fill="#ced4da"></path><path d="M-0.88 -1.42 C60.63 0.57, 118.99 0.81, 221.32 1.46 M-0.07 0.19 C49.74 0.41, 100.72 0.36, 220.34 0.43 M220.87 -0.43 C219.82 18.1, 221.51 33.66, 219.59 77.15 M220.96 -0.21 C219.37 30.07, 220.7 60.25, 219.39 78.49 M221.14 79.55 C174.19 79.3, 128.89 81.45, -1.12 79.12 M220.25 78.12 C140.77 77.84, 60.06 78.68, -0.6 78.14 M-0.17 79.31 C1.3 60.38, -2.12 44.33, 0.77 -1.47 M-0.94 79.14 C-0.2 50.2, -0.14 22.02, 0.48 0.86" stroke="#ced4da" stroke-width="4" fill="none"></path></g><g transform="translate(345.41957092284974 825.7954152425173) rotate(0 59 97.5)"><text x="59" y="136" font-family="Virgil, Segoe UI Emoji" font-size="153.90439453125006px" fill="#fff" text-anchor="middle" style="white-space: pre;" direction="ltr">8</text></g><g transform="translate(108.98795318603334 1076.411524454763) rotate(0 47 97.5)"><text x="47" y="136" font-family="Virgil, Segoe UI Emoji" font-size="153.90439453125006px" fill="#fff" text-anchor="middle" style="white-space: pre;" direction="ltr">9</text></g><g transform="translate(331.33041381835756 1075.6849009196067) rotate(0 74 97.5)"><text x="74" y="136" font-family="Virgil, Segoe UI Emoji" font-size="153.90439453125006px" fill="#fff" text-anchor="middle" style="white-space: pre;" direction="ltr">10</text></g><g transform="translate(118.74534606933412 1340.939875284841) rotate(0 41.5 97.5)"><text x="41.5" y="136" font-family="Virgil, Segoe UI Emoji" font-size="153.90439453125006px" fill="#fff" text-anchor="middle" style="white-space: pre;" direction="ltr">11</text></g><g transform="translate(337.71684265136537 1337.194758097341) rotate(0 75.5 97.5)"><text x="75.5" y="136" font-family="Virgil, Segoe UI Emoji" font-size="153.90439453125006px" fill="#fff" text-anchor="middle" style="white-space: pre;" direction="ltr">12</text></g></svg>
