<svg version="1.1" xmlns="http://www.w3.org/2000/svg" viewBox="0 0 612.364449025275 1186.9446657216477" width="1224.72889805055" height="2373.8893314432953">
  <!-- svg-source:excalidraw -->
  
  <defs>
    <style>
      @font-face {
        font-family: "Virgil";
        src: url("https://excalidraw.com/Virgil.woff2");
      }
      @font-face {
        font-family: "Cascadia";
        src: url("https://excalidraw.com/Cascadia.woff2");
      }
    </style>
  </defs>
  <rect x="0" y="0" width="612.364449025275" height="1186.9446657216477" fill="#ffffff"></rect><g stroke-linecap="round" transform="translate(10 10) rotate(0 267.17534383138036 467.88546244303416)"><path d="M0.94 0.08 L533.18 1.86 L535.22 933.88 L-0.12 936.92" stroke="none" stroke-width="0" fill="#333333"></path><path d="M0.24 0.58 C152.07 1.15, 303.53 1.55, 533.56 0.63 M-0.01 0.13 C108.61 -0.7, 216.62 -0.57, 534 0.39 M534.97 0.5 C537.15 310.28, 537.71 618.32, 534.81 935.51 M534.57 -0.38 C535.54 231.54, 535.51 463.82, 533.99 935.88 M534.46 936.35 C350.41 935.49, 167.04 934.65, -0.17 935.08 M534.31 936.12 C378.96 937.43, 223.17 937.36, 0.33 936.02 M-0.01 936.19 C2.26 711, 2 486.94, -0.67 0.36 M0.28 935.57 C2.72 730.67, 2.85 525.1, -0.2 0.38" stroke="#495057" stroke-width="4" fill="none"></path></g><g stroke-linecap="round"><g transform="translate(598.3632337782101 294.8522627088796) rotate(0 2.160890165618639 273.99325867312496)"><path d="M1.17 0.37 C1.84 91.96, 3.54 457.04, 4 548.47 M0.32 -0.48 C0.93 90.82, 3.03 455.26, 3.58 546.5" stroke="#333" stroke-width="4" fill="none"></path></g><g transform="translate(598.3632337782101 294.8522627088796) rotate(0 2.160890165618639 273.99325867312496)"><path d="M12.19 30.18 C9.24 21.8, 6.9 11.1, 3.1 0.93 M11.05 28.86 C9.07 23.04, 6.03 16.16, 0.43 -0.08" stroke="#333" stroke-width="4" fill="none"></path></g><g transform="translate(598.3632337782101 294.8522627088796) rotate(0 2.160890165618639 273.99325867312496)"><path d="M-8.33 30.29 C-5.2 21.68, -1.46 10.94, 3.1 0.93 M-9.47 28.97 C-7.09 23.19, -5.77 16.29, 0.43 -0.08" stroke="#333" stroke-width="4" fill="none"></path></g><g transform="translate(598.3632337782101 294.8522627088796) rotate(0 2.160890165618639 273.99325867312496)"><path d="M-6.23 520.05 C-3.5 528.15, 0.33 534.13, 5.51 547.07 M-7.37 518.73 C-4.6 524.93, -3.22 530, 2.85 546.05" stroke="#333" stroke-width="4" fill="none"></path></g><g transform="translate(598.3632337782101 294.8522627088796) rotate(0 2.160890165618639 273.99325867312496)"><path d="M14.29 519.93 C10.93 528.26, 8.68 534.28, 5.51 547.07 M13.15 518.61 C11.56 524.77, 8.59 529.87, 2.85 546.05" stroke="#333" stroke-width="4" fill="none"></path></g></g><g transform="translate(259.1407237087269 25.237872678299027) rotate(0 9.992404513888687 44.96582031249909)"><text x="9.992404513888685" y="62.93164062499821" font-family="Virgil, Segoe UI Emoji" font-size="71.94531249999855px" fill="#fff" text-anchor="middle" style="white-space: pre;" direction="ltr">1</text></g><g transform="translate(246.25286563580994 130.8599904625844) rotate(0 25.5 45.5)"><text x="25.5" y="64" font-family="Virgil, Segoe UI Emoji" font-size="71.94531249999855px" fill="#fff" text-anchor="middle" style="white-space: pre;" direction="ltr">2</text></g><g transform="translate(248.26381127382865 233.16837058953934) rotate(0 24.5 45.5)"><text x="24.5" y="64" font-family="Virgil, Segoe UI Emoji" font-size="71.94531249999855px" fill="#fff" text-anchor="middle" style="white-space: pre;" direction="ltr">3</text></g><g transform="translate(249.36281029726706 337.58316212057525) rotate(0 23 45.5)"><text x="23" y="64" font-family="Virgil, Segoe UI Emoji" font-size="71.94531249999855px" fill="#fff" text-anchor="middle" style="white-space: pre;" direction="ltr">4</text></g><g transform="translate(249.14624399951754 438.6691131839443) rotate(0 22 45.5)"><text x="22" y="64" font-family="Virgil, Segoe UI Emoji" font-size="71.94531249999855px" fill="#fff" text-anchor="middle" style="white-space: pre;" direction="ltr">5</text></g><g transform="translate(247.9224280815497 546.9369964847233) rotate(0 23 45.5)"><text x="23" y="64" font-family="Virgil, Segoe UI Emoji" font-size="71.94531249999855px" fill="#fff" text-anchor="middle" style="white-space: pre;" direction="ltr">6</text></g><g transform="translate(254.04216549474313 652.5591142690087) rotate(0 19.5 45.5)"><text x="19.5" y="64" font-family="Virgil, Segoe UI Emoji" font-size="71.94531249999855px" fill="#fff" text-anchor="middle" style="white-space: pre;" direction="ltr">7</text></g><g transform="translate(247.05311113276275 754.8674943959636) rotate(0 27.5 45.5)"><text x="27.5" y="64" font-family="Virgil, Segoe UI Emoji" font-size="71.94531249999855px" fill="#fff" text-anchor="middle" style="white-space: pre;" direction="ltr">8</text></g><g transform="translate(252.15211015620025 859.5625729278686) rotate(0 22 45.5)"><text x="22" y="64" font-family="Virgil, Segoe UI Emoji" font-size="71.94531249999855px" fill="#fff" text-anchor="middle" style="white-space: pre;" direction="ltr">9</text></g><g stroke-linecap="round" transform="translate(12.396320293454664 954.1019278879876) rotate(0 264.75045945909324 111.42136891683003)"><path d="M1.56 -1.48 L528.64 -1.15 L528.92 221.92 L1.74 224.12" stroke="none" stroke-width="0" fill="#ced4da"></path><path d="M-0.38 -0.46 C205.3 2.12, 410.47 2.05, 530.15 -0.4 M-0.39 0.02 C209.52 0.4, 419.26 0.32, 529.3 0.02 M527.86 -0.63 C531.76 89.58, 530.8 176.18, 529.25 223.5 M529.34 -0.49 C528.6 75.73, 527.67 150.63, 529.61 222.15 M529.26 222.64 C360.46 224.11, 191.45 224.29, 0.65 223.31 M529.41 222.67 C318.57 225, 107.62 224.4, -0.3 222.57 M1.58 221.91 C2.51 151.01, 1.7 79.65, -0.45 1.68 M0.54 222.77 C-0.45 150.13, -1 77.42, 0.08 0.05" stroke="#ced4da" stroke-width="4" fill="none"></path></g><g transform="translate(241.5752397677561 964.653203353208) rotate(0 34.5 45.5)"><text x="34.5" y="64" font-family="Virgil, Segoe UI Emoji" font-size="71.94531249999855px" fill="#fff" text-anchor="middle" style="white-space: pre;" direction="ltr">10</text></g><g transform="translate(259.19497718094954 1070.2753211374934) rotate(0 19.5 45.5)"><text x="19.5" y="64" font-family="Virgil, Segoe UI Emoji" font-size="71.94531249999855px" fill="#fff" text-anchor="middle" style="white-space: pre;" direction="ltr">11</text></g><g stroke-linecap="round"><g transform="translate(47.39024899084416 117.80363805915567) rotate(0 228.82978742343903 -0.35686708783612175)"><path d="M0.37 0.31 C76.72 0.35, 382.43 0.56, 458.55 0.41 M-0.89 -0.57 C75.3 -0.85, 381.11 -1.35, 457.83 -1.12" stroke="#ced4da" stroke-width="4" fill="none"></path></g></g><g stroke-linecap="round"><g transform="translate(50.12222010981441 229.12954855700582) rotate(0 229.15053207355595 0.15821339416584124)"><path d="M0.18 -0.72 C76.24 -0.97, 380.91 -1.29, 457.23 -1.18 M-1.18 1.52 C75.17 1.41, 383.06 0.72, 459.48 0.11" stroke="#ced4da" stroke-width="4" fill="none"></path></g></g><g stroke-linecap="round"><g transform="translate(49.29580409418941 329.9955153538808) rotate(0 229.21307085584453 -0.6309944007753074)"><path d="M1.18 0.64 C77.47 0.48, 382.03 -1.56, 458.08 -1.9 M0.34 -0.07 C76.44 -0.05, 381.11 -0.92, 457.12 -0.98" stroke="#ced4da" stroke-width="4" fill="none"></path></g></g><g stroke-linecap="round"><g transform="translate(54.31155116450191 433.01706076403707) rotate(0 229.103255262203 -0.8599399693798659)"><path d="M1.14 -0.36 C77.42 -0.4, 381.84 -1.19, 457.92 -1.34 M0.29 -1.59 C76.36 -1.39, 380.82 -0.36, 456.87 -0.13" stroke="#ced4da" stroke-width="4" fill="none"></path></g></g><g stroke-linecap="round"><g transform="translate(54.54275233637691 536.7740187718496) rotate(0 228.49041174394597 -0.08052170763016875)"><path d="M-0.13 1.1 C76.12 1.08, 382.37 -0.82, 458.64 -1.26 M-1.66 0.63 C74.38 0.87, 381.62 0.2, 457.97 -0.01" stroke="#ced4da" stroke-width="4" fill="none"></path></g></g><g stroke-linecap="round"><g transform="translate(51.33681971918941 639.4324050023183) rotate(0 229.22527472598063 -0.9090376461457481)"><path d="M1.17 -0.01 C77.59 -0.13, 381.9 0.15, 458.12 -0.04 M0.33 -1.07 C76.63 -1.59, 380.91 -1.97, 457.17 -1.81" stroke="#ced4da" stroke-width="4" fill="none"></path></g></g><g stroke-linecap="round"><g transform="translate(48.88552577387691 748.5506300999746) rotate(0 228.89609803271992 -0.309693203170184)"><path d="M0.65 -0.69 C76.98 -0.79, 382.09 -0.39, 458.27 -0.29 M-0.47 1.56 C75.69 1.06, 381.2 -1.58, 457.4 -2.18" stroke="#ced4da" stroke-width="4" fill="none"></path></g></g><g stroke-linecap="round"><g transform="translate(54.54275233637691 847.1239943577871) rotate(0 228.9320571403955 -0.4033036439235502)"><path d="M-1.11 -0.82 C75.47 -0.88, 382.31 -0.37, 458.97 -0.28 M0.51 1.37 C77.05 0.92, 382.15 -1.54, 458.48 -2.18" stroke="#ced4da" stroke-width="4" fill="none"></path></g></g><g stroke-linecap="round"><g transform="translate(60.46792323481441 1052.987031467162) rotate(0 228.74665999065678 -0.06410401242544594)"><path d="M0.64 -0.95 C77.06 -0.99, 381.6 -1.25, 457.98 -1.32 M-0.49 1.17 C75.81 1.37, 380.45 0.16, 456.96 -0.09" stroke="#fff" stroke-width="4" fill="none"></path></g></g></svg>